<?xml version="1.0" encoding="utf-8"?>
<svg version="1.1" id="Layer_1" xmlns="http://www.w3.org/2000/svg" xmlns:xlink="http://www.w3.org/1999/xlink"
     viewBox="0 0 100 25" width="100%" height="100%" preserveAspectRatio="xMidYMid meet" style="background-color:#333366;">
  <style type="text/css">
    .st0{fill:#FFFFFF;}
  </style>

  <!-- Background Rectangle -->
  <rect width="100%" height="100%" fill="#333366"/>

  <!-- Letter F -->
  <g>
    <rect x="5" y="4" width="6" height="16" class="st0"/>
    <rect x="5" y="4" width="14" height="3" class="st0"/>
    <rect x="5" y="11" width="11" height="3" class="st0"/>
  </g>

  <!-- Letter D -->
  <g>
    <rect x="25" y="4" width="6" height="16" class="st0"/>
    <path class="st0" d="M31,4 h12 c5,0 9,4 9,8 s-4,8 -9,8 h-12 V4 z"/>
  </g>

  <!-- Letter I -->
  <g>
    <rect x="48" y="4" width="6" height="16" class="st0"/>
  </g>

  <!-- Letter C -->
  <g>
    <path class="st0" d="M65,4 h-12 c-5,0 -9,4 -9,8 s4,8 9,8 h12 v-3 h-11 c-3,0 -5-3 -5-5 s2-5 5-5 h11 V4 z"/>
  </g>
</svg>

