<?xml version="1.0" encoding="utf-8"?>
<svg xmlns="http://www.w3.org/2000/svg" viewBox="0 0 250 40" preserveAspectRatio="xMidYMid meet" style="width:100%; height:auto; background-color:#333366;">
  <style type="text/css">
    .st0 { fill: #FFFFFF; }
  </style>

  <!-- Background Rectangle -->
  <rect width="100%" height="100%" fill="#333366" />

  <!-- Letter F -->
  <g>
    <rect x="10" y="8" width="8" height="24" class="st0"/>
    <rect x="10" y="8" width="18" height="5" class="st0"/>
    <rect x="10" y="18" width="14" height="5" class="st0"/>
  </g>

  <!-- Letter D -->
  <g>
    <rect x="50" y="8" width="6" height="20" class="st0"/>
    <path class="st0" d="M56,8 h10 a10,10 0 1,1 0,24 h-10 V8 z"/>
  </g>

  <!-- Letter I -->
  <g>
    <rect x="90" y="8" width="8" height="24" class="st0"/>
  </g>

  <!-- Letter C -->
  <g>
    <path class="st0" d="M130,8 h-12 c-6,0 -10,7 -10,12 s4,12 10,12 h12 v-5 h-11 c-4,0 -6-5 -6-7 s2-7 6-7 h11 V8 z"/>
  </g>
</svg>



