<svg width="230" height="83" viewBox="0 0 230 83" fill="none" xmlns="http://www.w3.org/2000/svg">
<g clip-path="url(#clip0_47_12955)">
<path d="M0 67.0918C72.9404 15.2221 33.2365 95.4636 117.441 51.6266C192.866 12.3635 174.277 72.7661 220.734 49.497C174.277 72.7804 186.142 -11.7918 120.839 44.3229C63.3321 93.7484 75.139 -7.30379 0 67.0918Z" fill="#D8D8D8"/>
<path d="M20.2871 40.5781C43.6298 14.1644 81.2492 70.0362 124.579 34.1319C179.759 -11.606 178.189 68.4782 228.386 37.1334C178.189 68.4782 194.322 -51.6267 122.795 27.4284C88.6161 65.2194 35.0636 -3.47323 20.2871 40.5781Z" fill="#D8D8D8"/>
<path d="M10.6934 71.8228C41.4029 37.0477 70.6418 110.471 114.986 70.9652C172.379 19.8388 179.803 105.426 229.986 74.0811C179.788 105.426 203.145 7.30378 115.742 58.2587C39.9323 102.467 59.5487 14.7362 10.6934 71.8228Z" fill="#D8D8D8"/>
<path d="M142.383 29.3723L143.083 31.602L145.424 31.5877L143.526 32.9599L144.268 35.1896L142.383 33.7889L140.485 35.1896L141.227 32.9599L139.328 31.5877L141.67 31.602L142.383 29.3723Z" fill="white"/>
<path d="M142.383 29.3723L143.083 31.602L145.424 31.5877L143.526 32.9599L144.268 35.1896L142.383 33.7889L140.485 35.1896L141.227 32.9599L139.328 31.5877L141.67 31.602L142.383 29.3723Z" stroke="#231F20" stroke-width="0.26"/>
<path d="M79.3795 68.3639L80.079 70.6079L82.4204 70.5936L80.5216 71.9515L81.264 74.1812L79.3795 72.7947L77.4806 74.1812L78.223 71.9515L76.3242 70.5936L78.6656 70.6079L79.3795 68.3639Z" fill="white"/>
<path d="M79.3795 68.3639L80.079 70.6079L82.4204 70.5936L80.5216 71.9515L81.264 74.1812L79.3795 72.7947L77.4806 74.1812L78.223 71.9515L76.3242 70.5936L78.6656 70.6079L79.3795 68.3639Z" stroke="#231F20" stroke-width="0.26"/>
<path d="M39.4752 44.6659L40.1747 46.8956L42.5161 46.8813L40.6173 48.2535L41.3597 50.4832L39.4752 49.0825L37.5763 50.4832L38.3187 48.2535L36.4199 46.8813L38.7613 46.8956L39.4752 44.6659Z" fill="white"/>
<path d="M39.4752 44.6659L40.1747 46.8956L42.5161 46.8813L40.6173 48.2535L41.3597 50.4832L39.4752 49.0825L37.5763 50.4832L38.3187 48.2535L36.4199 46.8813L38.7613 46.8956L39.4752 44.6659Z" stroke="#231F20" stroke-width="0.26"/>
<path d="M40.1754 70.6508L40.8892 72.8805L43.2306 72.8662L41.3175 74.2383L42.0599 76.468L40.1754 75.0673L38.2908 76.468L39.0332 74.2383L37.1201 72.8662L39.4615 72.8805L40.1754 70.6508Z" fill="white"/>
<path d="M40.1754 70.6508L40.8892 72.8805L43.2306 72.8662L41.3175 74.2383L42.0599 76.468L40.1754 75.0673L38.2908 76.468L39.0332 74.2383L37.1201 72.8662L39.4615 72.8805L40.1754 70.6508Z" stroke="#231F20" stroke-width="0.26"/>
<path d="M180.503 72.6518L181.202 74.8958L183.558 74.8815L181.645 76.2394L182.387 78.4691L180.503 77.0827L178.618 78.4691L179.36 76.2394L177.447 74.8815L179.789 74.8958L180.503 72.6518Z" fill="white"/>
<path d="M180.503 72.6518L181.202 74.8958L183.558 74.8815L181.645 76.2394L182.387 78.4691L180.503 77.0827L178.618 78.4691L179.36 76.2394L177.447 74.8815L179.789 74.8958L180.503 72.6518Z" stroke="#231F20" stroke-width="0.26"/>
<path d="M161.628 20.3248L162.328 22.5545L164.684 22.5402L162.771 23.9123L163.513 26.1421L161.628 24.7413L159.744 26.1421L160.472 23.9123L158.573 22.5402L160.915 22.5545L161.628 20.3248Z" fill="white"/>
<path d="M161.628 20.3248L162.328 22.5545L164.684 22.5402L162.771 23.9123L163.513 26.1421L161.628 24.7413L159.744 26.1421L160.472 23.9123L158.573 22.5402L160.915 22.5545L161.628 20.3248Z" stroke="#231F20" stroke-width="0.26"/>
<path d="M20.8873 48.1392L21.6011 50.3689L23.9425 50.3546L22.0294 51.7124L22.7718 53.9422L20.8873 52.5557L19.0027 53.9422L19.7451 51.7124L17.832 50.3546L20.1734 50.3689L20.8873 48.1392Z" fill="white"/>
<path d="M20.8873 48.1392L21.6011 50.3689L23.9425 50.3546L22.0294 51.7124L22.7718 53.9422L20.8873 52.5557L19.0027 53.9422L19.7451 51.7124L17.832 50.3546L20.1734 50.3689L20.8873 48.1392Z" stroke="#231F20" stroke-width="0.26"/>
<path d="M209.855 58.0157L210.569 60.2597L212.91 60.2454L210.997 61.6033L211.74 63.833L209.855 62.4465L207.97 63.833L208.713 61.6033L206.8 60.2454L209.141 60.2597L209.855 58.0157Z" fill="white"/>
<path d="M209.855 58.0157L210.569 60.2597L212.91 60.2454L210.997 61.6033L211.74 63.833L209.855 62.4465L207.97 63.833L208.713 61.6033L206.8 60.2454L209.141 60.2597L209.855 58.0157Z" stroke="#231F20" stroke-width="0.26"/>
<path d="M103.493 72.7233L104.207 74.953L106.548 74.9387L104.649 76.2965L105.392 78.5263L103.493 77.1398L101.608 78.5263L102.351 76.2965L100.438 74.9387L102.793 74.953L103.493 72.7233Z" fill="white"/>
<path d="M103.493 72.7233L104.207 74.953L106.548 74.9387L104.649 76.2965L105.392 78.5263L103.493 77.1398L101.608 78.5263L102.351 76.2965L100.438 74.9387L102.793 74.953L103.493 72.7233Z" stroke="#231F20" stroke-width="0.26"/>
<path d="M173.521 4.33081L174.235 6.56053L176.576 6.54624L174.663 7.90408L175.406 10.1338L173.521 8.74738L171.637 10.1338L172.379 7.90408L170.466 6.54624L172.807 6.56053L173.521 4.33081Z" fill="white"/>
<path d="M173.521 4.33081L174.235 6.56053L176.576 6.54624L174.663 7.90408L175.406 10.1338L173.521 8.74738L171.637 10.1338L172.379 7.90408L170.466 6.54624L172.807 6.56053L173.521 4.33081Z" stroke="#231F20" stroke-width="0.26"/>
<path d="M180.93 25.556L181.644 27.8L183.985 27.7858L182.072 29.1436L182.815 31.3733L180.93 29.9869L179.046 31.3733L179.788 29.1436L177.875 27.7858L180.231 27.8L180.93 25.556Z" fill="white"/>
<path d="M180.93 25.556L181.644 27.8L183.985 27.7858L182.072 29.1436L182.815 31.3733L180.93 29.9869L179.046 31.3733L179.788 29.1436L177.875 27.7858L180.231 27.8L180.93 25.556Z" stroke="#231F20" stroke-width="0.26"/>
<path d="M39.0762 30.0726C37.1202 30.0726 35.9353 28.3575 35.9353 26.1849C35.9353 23.5979 37.2773 22.9261 38.448 22.9261C40.1184 22.9261 41.4461 24.3697 41.4461 26.6995C41.4461 29.701 39.79 30.0584 39.0762 30.0584M38.6479 30.5872C41.2462 30.5872 42.8738 28.7005 42.8738 26.3136C42.8738 23.9266 41.2891 22.4258 38.7478 22.4258C35.6783 22.4258 34.5361 24.727 34.5361 26.4994C34.5361 28.2717 35.7211 30.5872 38.6479 30.5872Z" fill="#231F20"/>
<path d="M49.5554 27.4284C49.5554 28.4289 49.5554 29.2151 49.6125 29.6439C49.6411 29.944 49.6982 30.1727 50.0123 30.2156C50.155 30.2299 50.3835 30.2585 50.5262 30.2585C50.6547 30.2585 50.6976 30.2871 50.6976 30.3442C50.6976 30.4157 50.6262 30.4443 50.4691 30.4443C49.8267 30.4443 49.1842 30.4157 48.9129 30.4157C48.6417 30.4157 47.9992 30.4443 47.6138 30.4443C47.471 30.4443 47.3996 30.43 47.3996 30.3442C47.3996 30.2871 47.4424 30.2585 47.5567 30.2585C47.7137 30.2585 47.8279 30.2299 47.9278 30.2156C48.1277 30.1727 48.1848 29.944 48.2277 29.6439C48.2848 29.2008 48.2848 28.4289 48.2848 27.4284V25.5989C48.2848 24.0124 48.2848 23.7265 48.2705 23.3835C48.2562 23.0262 48.1706 22.8546 47.8279 22.7832C47.7423 22.7546 47.5709 22.7546 47.4282 22.7546C47.3282 22.7546 47.2568 22.726 47.2568 22.6831C47.2568 22.5974 47.3425 22.5831 47.4853 22.5831C48.0135 22.5831 48.656 22.6117 48.9558 22.6117C49.3413 22.6117 51.4114 22.6117 51.6541 22.5974C51.8397 22.5974 51.9682 22.5974 52.0681 22.5545C52.1252 22.5259 52.1824 22.4973 52.2252 22.4973C52.268 22.4973 52.2966 22.5402 52.2966 22.5831C52.2966 22.6545 52.2395 22.7832 52.2109 23.0547C52.2109 23.1548 52.1823 23.7694 52.1538 23.898C52.1538 23.9838 52.1252 24.041 52.0539 24.041C51.9825 24.041 51.9539 23.9838 51.9539 23.8695C51.9539 23.7837 51.9539 23.6265 51.8968 23.4692C51.8254 23.3263 51.6113 23.1691 51.2258 23.1548L49.6553 23.1262C49.6553 23.1262 49.5554 23.1548 49.5554 23.2691V25.8705C49.5554 25.8705 49.5554 25.9562 49.6268 25.9562H50.926C51.0973 25.9562 51.2401 25.9562 51.3828 25.942C51.5827 25.942 51.7255 25.8848 51.8254 25.7561C51.8825 25.699 51.8968 25.6561 51.9539 25.6561C51.9968 25.6561 52.011 25.6847 52.011 25.7561C52.011 25.8276 51.9539 26.0849 51.9254 26.3993C51.9111 26.6137 51.8825 27.0854 51.8825 27.1569C51.8825 27.2569 51.8825 27.357 51.7826 27.357C51.7255 27.357 51.6969 27.2855 51.6969 27.214C51.6969 27.1426 51.6827 27.0139 51.6398 26.8853C51.5827 26.7424 51.44 26.5566 51.1259 26.5137C50.8689 26.4851 49.7838 26.4851 49.6125 26.4851C49.5697 26.4851 49.5411 26.4994 49.5411 26.5851V27.4284H49.5554Z" fill="#231F20"/>
<path d="M59.5626 27.4284C59.5626 28.4289 59.5626 29.2151 59.6197 29.6439C59.6483 29.944 59.7054 30.1727 60.0195 30.2156C60.1622 30.2299 60.3907 30.2585 60.5334 30.2585C60.6619 30.2585 60.7048 30.2871 60.7048 30.3442C60.7048 30.4157 60.6334 30.4443 60.4763 30.4443C59.8339 30.4443 59.1914 30.4157 58.9344 30.4157C58.6775 30.4157 58.0207 30.4443 57.6352 30.4443C57.4925 30.4443 57.4211 30.43 57.4211 30.3442C57.4211 30.2871 57.4639 30.2585 57.5781 30.2585C57.7352 30.2585 57.8494 30.2299 57.9493 30.2156C58.1492 30.1727 58.2063 29.944 58.2491 29.6439C58.3063 29.2008 58.3063 28.4289 58.3063 27.4284V25.5989C58.3063 24.0124 58.3063 23.7265 58.292 23.3835C58.2777 23.0262 58.192 22.8546 57.8494 22.7832C57.7637 22.7546 57.5924 22.7546 57.4496 22.7546C57.3497 22.7546 57.2783 22.726 57.2783 22.6831C57.2783 22.5974 57.364 22.5831 57.5067 22.5831C58.035 22.5831 58.6775 22.6117 58.9773 22.6117C59.3627 22.6117 61.4329 22.6117 61.6756 22.5974C61.8755 22.5974 61.9897 22.5974 62.0896 22.5545C62.1467 22.5259 62.2038 22.4973 62.2467 22.4973C62.2895 22.4973 62.3181 22.5402 62.3181 22.5831C62.3181 22.6545 62.2609 22.7832 62.2324 23.0547C62.2324 23.1548 62.2038 23.7694 62.1753 23.898C62.1753 23.9838 62.1467 24.041 62.0753 24.041C62.004 24.041 61.9754 23.9838 61.9754 23.8695C61.9754 23.7837 61.9754 23.6265 61.9183 23.4692C61.8469 23.3263 61.6328 23.1691 61.2473 23.1548L59.6768 23.1262C59.6768 23.1262 59.5912 23.1548 59.5912 23.2691V25.8705C59.5912 25.8705 59.5912 25.9562 59.6626 25.9562H60.9617C61.1331 25.9562 61.2758 25.9562 61.4186 25.942C61.6185 25.942 61.7613 25.8848 61.8612 25.7561C61.9183 25.699 61.9326 25.6561 61.9897 25.6561C62.0325 25.6561 62.0468 25.6847 62.0468 25.7561C62.0468 25.8276 61.9897 26.0849 61.9611 26.3993C61.9469 26.6137 61.9183 27.0854 61.9183 27.1569C61.9183 27.2569 61.9183 27.357 61.8184 27.357C61.7613 27.357 61.7327 27.2855 61.7327 27.214C61.7327 27.1426 61.7184 27.0139 61.6756 26.8853C61.6185 26.7424 61.4757 26.5566 61.1616 26.5137C60.9046 26.4851 59.8196 26.4851 59.6483 26.4851C59.5912 26.4851 59.5769 26.4994 59.5769 26.5851V27.4284H59.5626Z" fill="#231F20"/>
<path d="M68.7002 25.5989C68.7002 24.0124 68.7002 23.7122 68.6717 23.3835C68.6574 23.0262 68.5575 22.8546 68.329 22.7975C68.2148 22.7689 68.0863 22.7546 67.9578 22.7546C67.8579 22.7546 67.8008 22.726 67.8008 22.6545C67.8008 22.5974 67.8864 22.5688 68.0435 22.5688C68.429 22.5688 69.0714 22.5974 69.3712 22.5974C69.6282 22.5974 70.2278 22.5688 70.6133 22.5688C70.7418 22.5688 70.8275 22.5831 70.8275 22.6545C70.8275 22.7403 70.7704 22.7546 70.6704 22.7546C70.5705 22.7546 70.4848 22.7546 70.3706 22.7832C70.0994 22.8404 70.0137 23.0119 69.9851 23.3692C69.9709 23.6979 69.9709 23.9981 69.9709 25.5846V27.4141C69.9709 28.429 69.9709 29.2437 70.0137 29.701C70.0422 29.9869 70.1136 30.1727 70.4277 30.2156C70.5705 30.2299 70.7989 30.2585 70.9417 30.2585C71.0559 30.2585 71.0987 30.2871 71.0987 30.3442C71.0987 30.4157 71.0131 30.4443 70.8989 30.4443C70.2278 30.4443 69.5854 30.4157 69.3141 30.4157C69.0857 30.4157 68.4432 30.4443 68.0292 30.4443C67.9007 30.4443 67.8293 30.4157 67.8293 30.3442C67.8293 30.2871 67.8722 30.2585 67.9864 30.2585C68.1434 30.2585 68.2576 30.2299 68.3576 30.2156C68.5575 30.1727 68.6146 30.0012 68.6574 29.6867C68.7145 29.258 68.7145 28.429 68.7145 27.4141V25.5846L68.7002 25.5989Z" fill="#231F20"/>
<path d="M77.4376 29.4581C76.4383 28.5576 76.167 27.3999 76.167 26.3851C76.167 25.6847 76.3811 24.4555 77.3662 23.5408C78.0944 22.8547 79.0652 22.4402 80.5928 22.4402C81.221 22.4402 81.6065 22.4831 82.0776 22.5402C82.4631 22.5974 82.7915 22.6832 83.0913 22.7118C83.2055 22.7118 83.2483 22.7689 83.2483 22.8404C83.2483 22.9262 83.2198 23.0548 83.1912 23.4121C83.1769 23.7551 83.1912 24.3269 83.1626 24.5413C83.1626 24.6985 83.1341 24.7843 83.0484 24.7843C82.977 24.7843 82.9485 24.6985 82.9485 24.5556C82.9485 24.2268 82.8057 23.8695 82.5487 23.5979C82.2204 23.2406 81.4209 22.9547 80.4643 22.9547C79.5792 22.9547 78.9938 23.1834 78.5512 23.5979C77.8088 24.2983 77.609 25.2845 77.609 26.2993C77.609 28.772 79.4507 30.0012 80.8212 30.0012C81.735 30.0012 82.2775 29.9012 82.6915 29.4152C82.8628 29.2151 82.9913 28.915 83.0342 28.7291C83.0627 28.5719 83.0913 28.5148 83.1626 28.5148C83.234 28.5148 83.2483 28.5862 83.2483 28.672C83.2483 28.8006 83.1341 29.7011 83.0342 30.0584C82.977 30.2299 82.9342 30.2871 82.7629 30.3586C82.3489 30.5301 81.5779 30.6015 80.9355 30.6015C79.5363 30.6015 78.3656 30.2871 77.4376 29.4724" fill="#231F20"/>
<path d="M89.5303 25.5989C89.5303 24.0124 89.5303 23.7122 89.5017 23.3835C89.4875 23.0262 89.3733 22.8546 89.1591 22.7975C89.0449 22.7689 88.9164 22.7546 88.7879 22.7546C88.688 22.7546 88.6309 22.726 88.6309 22.6545C88.6309 22.5974 88.7165 22.5688 88.8736 22.5688C89.259 22.5688 89.9015 22.5974 90.2013 22.5974C90.4583 22.5974 91.0579 22.5688 91.4434 22.5688C91.5862 22.5688 91.6575 22.5831 91.6575 22.6545C91.6575 22.7403 91.6004 22.7546 91.5005 22.7546C91.4006 22.7546 91.3149 22.7546 91.2007 22.7832C90.9294 22.8404 90.8438 23.0119 90.8295 23.3692C90.8152 23.6979 90.8152 23.9981 90.8152 25.5846V27.4141C90.8152 28.429 90.8152 29.2437 90.858 29.701C90.8866 29.9869 90.958 30.1727 91.2721 30.2156C91.4148 30.2299 91.6433 30.2585 91.786 30.2585C91.9003 30.2585 91.9574 30.2871 91.9574 30.3442C91.9574 30.4157 91.8717 30.4443 91.7575 30.4443C91.0865 30.4443 90.444 30.4157 90.1728 30.4157C89.9443 30.4157 89.3019 30.4443 88.8878 30.4443C88.7593 30.4443 88.688 30.4157 88.688 30.3442C88.688 30.2871 88.7308 30.2585 88.845 30.2585C89.0021 30.2585 89.1163 30.2299 89.2162 30.2156C89.4161 30.1727 89.4875 30.0012 89.516 29.6867C89.5731 29.258 89.5731 28.429 89.5731 27.4141V25.5846L89.5303 25.5989Z" fill="#231F20"/>
<path d="M98.8385 27.214C98.8385 27.214 98.7814 27.1854 98.7957 27.1426L99.7379 24.5841C99.7379 24.5841 99.7665 24.484 99.795 24.484C99.8236 24.484 99.8379 24.5412 99.8522 24.5841L100.766 27.1568C100.766 27.1568 100.766 27.214 100.723 27.214H98.8385ZM100.909 27.7286C100.909 27.7286 100.994 27.7572 101.009 27.8L101.822 30.0155C101.879 30.1441 101.808 30.2442 101.737 30.2585C101.637 30.2585 101.594 30.287 101.594 30.3442C101.594 30.4157 101.708 30.4157 101.894 30.43C102.708 30.4443 103.45 30.4443 103.821 30.4443C104.192 30.4443 104.292 30.43 104.292 30.3442C104.292 30.2727 104.249 30.2585 104.164 30.2585C104.035 30.2585 103.893 30.2442 103.735 30.2156C103.521 30.1584 103.221 30.0155 102.836 29.0864C102.179 27.4999 100.552 23.2548 100.309 22.6831C100.209 22.4401 100.152 22.3544 100.052 22.3544C99.9521 22.3544 99.895 22.4687 99.7665 22.7689L97.2109 29.3151C97.0111 29.8297 96.8112 30.187 96.3401 30.2585C96.2544 30.2585 96.1116 30.287 96.026 30.287C95.9403 30.287 95.8975 30.3156 95.8975 30.3728C95.8975 30.4586 95.9546 30.4728 96.0973 30.4728C96.6256 30.4728 97.1967 30.4443 97.2966 30.4443C97.6107 30.4443 98.0533 30.4728 98.3816 30.4728C98.4959 30.4728 98.553 30.4586 98.553 30.3728C98.553 30.3156 98.5244 30.287 98.3959 30.287H98.2389C97.9248 30.287 97.8248 30.1441 97.8248 29.9583C97.8248 29.8297 97.8819 29.5867 97.9819 29.3151L98.5387 27.8286C98.5387 27.8286 98.5815 27.7429 98.6386 27.7429H100.909V27.7286Z" fill="#231F20"/>
<path d="M110.717 27.4284C110.717 28.7577 110.717 29.4866 110.932 29.6725C111.103 29.8297 111.374 29.9011 112.159 29.9011C112.702 29.9011 113.102 29.9011 113.344 29.6153C113.473 29.4724 113.587 29.1865 113.616 28.9864C113.616 28.8863 113.644 28.8292 113.73 28.8435C113.801 28.8435 113.816 28.9006 113.816 29.015C113.816 29.1293 113.744 29.9154 113.658 30.2156C113.601 30.4443 113.544 30.4872 113.016 30.4872C111.545 30.4872 110.874 30.43 110.046 30.43C109.804 30.43 109.176 30.4586 108.761 30.4586C108.619 30.4586 108.562 30.43 108.562 30.3585C108.562 30.3014 108.604 30.2728 108.733 30.2728C108.89 30.2728 109.004 30.2442 109.104 30.2299C109.304 30.187 109.361 29.9583 109.404 29.6582C109.447 29.2294 109.447 28.4004 109.447 27.4427V25.5989C109.447 24.0124 109.447 23.7265 109.433 23.3835C109.404 23.0262 109.333 22.8546 108.99 22.7832C108.904 22.7689 108.79 22.7546 108.662 22.7546C108.547 22.7546 108.49 22.726 108.49 22.6545C108.49 22.5831 108.562 22.5688 108.719 22.5688C109.204 22.5688 109.847 22.5974 110.118 22.5974C110.361 22.5974 111.103 22.5688 111.503 22.5688C111.645 22.5688 111.717 22.5831 111.717 22.6545C111.717 22.726 111.66 22.7546 111.531 22.7546C111.417 22.7546 111.26 22.7546 111.131 22.7832C110.86 22.8404 110.775 23.0119 110.76 23.3835C110.746 23.7122 110.746 24.0124 110.746 25.5989V27.4284H110.717Z" fill="#231F20"/>
<path d="M106.733 35.3611C106.733 35.3611 113.686 42.5648 114.885 47.6103C116.085 52.6557 122.081 15.1935 134.787 23.5979C123.038 14.9506 115.128 41.1212 115.128 41.1212L106.733 35.3611Z" fill="#231F20"/>
<path d="M46.5571 41.1641C46.5571 38.0482 46.5571 37.4765 46.5286 36.819C46.5 36.1187 46.3572 35.7899 45.8147 35.647C45.6862 35.6041 45.4007 35.5898 45.1723 35.5898C44.9867 35.5898 44.8867 35.5469 44.8867 35.4183C44.8867 35.2754 45.0009 35.2325 45.2579 35.2325C46.1431 35.2325 47.1853 35.3039 47.6421 35.3039C48.1704 35.3039 51.4826 35.3039 51.7967 35.2897C52.1108 35.2468 52.3821 35.2039 52.5106 35.161C52.5962 35.1467 52.6962 35.0753 52.7675 35.0753C52.8389 35.0753 52.8675 35.161 52.8675 35.2611C52.8675 35.404 52.7961 35.647 52.739 36.5903C52.7247 36.7904 52.6962 37.6909 52.6676 37.9482C52.6533 38.0482 52.6105 38.1769 52.4963 38.1769C52.3821 38.1769 52.3392 38.0768 52.3392 37.891C52.3392 37.7481 52.325 37.405 52.2393 37.1478C52.1251 36.7761 51.9538 36.5332 51.1257 36.4188C50.8402 36.3759 49.0984 36.333 48.77 36.333C48.6844 36.333 48.6558 36.3902 48.6558 36.5331V41.7073C48.6558 41.8502 48.6701 41.9359 48.77 41.9359C49.1412 41.9359 51.0543 41.9359 51.4398 41.8931C51.8395 41.8502 52.0822 41.793 52.2393 41.5786C52.3535 41.4214 52.4249 41.3213 52.5106 41.3213C52.5677 41.3213 52.6248 41.3642 52.6248 41.4786C52.6248 41.5929 52.5391 41.9359 52.4963 42.965C52.4677 43.3795 52.4249 44.1943 52.4249 44.3372C52.4249 44.5087 52.4249 44.7231 52.2821 44.7231C52.1679 44.7231 52.1394 44.6373 52.1394 44.5373C52.1251 44.3372 52.1251 44.0656 52.068 43.794C51.9823 43.3795 51.7539 43.0794 51.14 42.9936C50.8259 42.9508 49.1698 42.9365 48.77 42.9365C48.6844 42.9365 48.6701 43.0222 48.6701 43.1366V44.7517C48.6701 45.452 48.6558 47.3244 48.6701 47.9105C48.6986 49.3255 48.9699 49.6256 50.6688 49.6256C51.0971 49.6256 51.7967 49.6256 52.2393 49.3826C52.6676 49.1397 52.8675 48.7109 52.9817 47.8676C53.0102 47.6389 53.0531 47.5674 53.1673 47.5817C53.3101 47.5817 53.3101 47.7532 53.3101 47.9533C53.3101 48.425 53.1673 49.8114 53.0959 50.2259C52.9817 50.7548 52.8389 50.7548 52.2107 50.7548C49.698 50.7548 48.5844 50.6261 47.5993 50.6261C47.2138 50.6261 46.1716 50.6833 45.5149 50.6833C45.3007 50.6833 45.1865 50.6261 45.1865 50.4832C45.1865 50.3832 45.2579 50.3117 45.4578 50.3117C45.7005 50.3117 45.9004 50.2688 46.0574 50.2402C46.3858 50.1545 46.4714 49.7114 46.5428 49.1111C46.6285 48.2535 46.6285 46.6241 46.6285 44.7374V41.1355L46.5571 41.1641Z" fill="#231F20"/>
<path d="M59.1064 44.766C59.1064 47.3816 59.1064 48.7966 59.4491 49.1683C59.7346 49.4827 60.1629 49.6256 61.4621 49.6256C62.3473 49.6256 62.9897 49.6113 63.4037 49.0539C63.6036 48.7823 63.8035 48.2106 63.8321 47.8247C63.8463 47.6389 63.8892 47.5245 64.0177 47.5245C64.1319 47.5245 64.1604 47.6246 64.1604 47.8676C64.1604 48.0963 64.0462 49.6256 63.9034 50.2259C63.8035 50.6833 63.7178 50.7834 62.847 50.7834C60.4484 50.7834 59.3491 50.6547 58.0071 50.6547C57.6216 50.6547 56.5794 50.7119 55.9227 50.7119C55.7085 50.7119 55.5943 50.6547 55.5943 50.5118C55.5943 50.4118 55.6657 50.3546 55.8656 50.3546C56.1083 50.3546 56.3082 50.3117 56.4652 50.2831C56.7936 50.1974 56.8792 49.7543 56.9506 49.154C57.0363 48.2964 57.0363 46.6813 57.0363 44.7803V41.1784C57.0363 38.0625 57.0363 37.4908 57.0077 36.8333C56.9792 36.1329 56.8364 35.8042 56.2939 35.6613C56.1654 35.6184 55.9655 35.6041 55.7514 35.6041C55.5658 35.6041 55.4658 35.5612 55.4658 35.4183C55.4658 35.2754 55.58 35.2325 55.837 35.2325C56.6222 35.2325 57.6645 35.2897 58.107 35.2897C58.5068 35.2897 59.706 35.2325 60.3628 35.2325C60.5912 35.2325 60.7054 35.2754 60.7054 35.4183C60.7054 35.5612 60.6055 35.6041 60.4056 35.6041C60.22 35.6041 59.9488 35.6184 59.7632 35.6613C59.3206 35.7613 59.1778 36.1044 59.1492 36.8333C59.1207 37.4908 59.1207 38.0625 59.1207 41.1784V44.7803L59.1064 44.766Z" fill="#231F20"/>
<path d="M67.0874 41.1641C67.0874 38.0482 67.0874 37.4765 67.0588 36.819C67.0303 36.1187 66.8875 35.7899 66.345 35.647C66.2165 35.6041 65.931 35.5898 65.7025 35.5898C65.5169 35.5898 65.417 35.5469 65.417 35.4183C65.417 35.2754 65.5312 35.2325 65.7882 35.2325C66.6734 35.2325 67.7156 35.3039 68.1724 35.3039C68.7007 35.3039 72.0129 35.3039 72.327 35.2897C72.6411 35.2468 72.9123 35.2039 73.0551 35.161C73.1408 35.1467 73.2407 35.0753 73.3121 35.0753C73.3835 35.0753 73.412 35.161 73.412 35.2611C73.412 35.404 73.3264 35.647 73.2835 36.5903C73.2693 36.7904 73.2407 37.6909 73.1979 37.9482C73.1836 38.0482 73.1408 38.1769 73.0266 38.1769C72.9123 38.1769 72.8695 38.0768 72.8695 37.891C72.8695 37.7481 72.8552 37.405 72.7696 37.1478C72.6554 36.7761 72.484 36.5332 71.656 36.4188C71.3704 36.3759 69.6287 36.333 69.3003 36.333C69.2146 36.333 69.1861 36.3902 69.1861 36.5331V41.7073C69.1861 41.8502 69.2004 41.9359 69.3003 41.9359C69.6715 41.9359 71.5846 41.9359 71.9558 41.8931C72.3555 41.8502 72.6125 41.793 72.7553 41.5786C72.8695 41.4214 72.9409 41.3213 73.0123 41.3213C73.0837 41.3213 73.1265 41.3642 73.1265 41.4786C73.1265 41.5929 73.0408 41.9359 72.998 42.965C72.9694 43.3795 72.9266 44.1943 72.9266 44.3372C72.9266 44.5087 72.9266 44.7231 72.7838 44.7231C72.6696 44.7231 72.6268 44.6373 72.6268 44.5373C72.6125 44.3372 72.6125 44.0656 72.5554 43.794C72.4698 43.3795 72.2413 43.0794 71.6274 42.9936C71.3133 42.9508 69.6715 42.9365 69.2717 42.9365C69.1861 42.9365 69.1718 43.0222 69.1718 43.1366V44.7517C69.1718 45.452 69.1575 47.3244 69.1718 47.9105C69.2004 49.3255 69.4716 49.6256 71.1706 49.6256C71.5989 49.6256 72.2984 49.6256 72.741 49.3826C73.1693 49.1397 73.3692 48.7109 73.4834 47.8676C73.512 47.6389 73.5548 47.5674 73.669 47.5817C73.8118 47.5817 73.8118 47.7532 73.8118 47.9533C73.8118 48.425 73.669 49.8114 73.5976 50.2259C73.4834 50.7548 73.3264 50.7548 72.7125 50.7548C70.1997 50.7548 69.0861 50.6261 68.101 50.6261C67.7156 50.6261 66.6734 50.6833 66.0166 50.6833C65.8025 50.6833 65.6883 50.6261 65.6883 50.4832C65.6883 50.3832 65.7454 50.3117 65.9595 50.3117C66.2022 50.3117 66.4021 50.2688 66.5591 50.2402C66.8875 50.1545 66.9732 49.7114 67.0446 49.1111C67.1302 48.2535 67.1302 46.6241 67.1302 44.7374V41.1355L67.0874 41.1641Z" fill="#231F20"/>
<path d="M77.8371 48.7537C76.2096 46.9957 75.7812 44.6945 75.7812 42.722C75.7812 41.3356 76.1239 38.9058 77.7229 37.1048C78.9222 35.7613 80.4926 34.9466 82.9768 34.9466C84.0047 34.9466 84.6186 35.0324 85.3896 35.161C86.0177 35.261 86.546 35.4469 87.0457 35.504C87.2313 35.5326 87.2884 35.6327 87.2884 35.747C87.2884 35.9042 87.2313 36.1615 87.2027 36.8762C87.1742 37.5479 87.1884 38.6771 87.1456 39.0773C87.1313 39.3775 87.1028 39.549 86.9457 39.549C86.803 39.549 86.7744 39.3917 86.7744 39.0916C86.7601 38.4627 86.546 37.7337 86.132 37.2049C85.5894 36.4902 84.2902 35.9328 82.7626 35.9328C81.3207 35.9328 80.3784 36.3902 79.6503 37.2049C78.4367 38.577 78.1227 40.5209 78.1227 42.5076C78.1227 47.3816 81.1351 49.7971 83.348 49.7971C84.8328 49.7971 85.7179 49.597 86.3889 48.6537C86.6745 48.2678 86.8886 47.6674 86.96 47.2958C87.0171 46.9671 87.0457 46.8956 87.1742 46.8956C87.2884 46.8956 87.3169 47.0386 87.3169 47.1958C87.3169 47.4388 87.1171 49.2254 86.9457 49.9115C86.8601 50.2545 86.803 50.3688 86.5174 50.5118C85.8607 50.8405 84.5901 50.9834 83.5336 50.9834C81.2636 50.9834 79.3505 50.3688 77.8371 48.7537Z" fill="#231F20"/>
<path d="M93.0141 36.3616L90.5299 36.4474C89.5591 36.4902 89.1593 36.5903 88.9024 37.0477C88.731 37.3478 88.6597 37.6051 88.6168 37.7623C88.5883 37.9196 88.5454 38.0053 88.4455 38.0053C88.3313 38.0053 88.3027 37.9053 88.3027 37.6766C88.3027 37.3478 88.6168 35.4897 88.6454 35.3325C88.7025 35.0609 88.7453 34.9466 88.8453 34.9466C88.988 34.9466 89.1451 35.1467 89.5591 35.1896C90.0445 35.2467 90.6727 35.2896 91.2295 35.2896H97.7968C98.3251 35.2896 98.6963 35.2325 98.939 35.1896C99.1817 35.1324 99.3245 35.0895 99.3816 35.0895C99.4958 35.0895 99.5243 35.2182 99.5243 35.5183C99.5243 35.9471 99.4672 37.3621 99.4672 37.891C99.453 38.0911 99.4101 38.2197 99.3245 38.2197C99.196 38.2197 99.1531 38.1197 99.1389 37.8052V37.5765C99.096 37.0477 98.6392 36.4617 97.1687 36.4331L95.0842 36.3759V44.7802C95.0842 46.6669 95.0842 48.2821 95.1699 49.1682C95.2127 49.7399 95.3127 50.1973 95.8124 50.2831C96.0408 50.326 96.412 50.3688 96.6547 50.3545C96.8403 50.3545 96.926 50.4117 96.926 50.5118C96.926 50.6547 96.7975 50.7119 96.6119 50.7119C95.5125 50.7119 94.4703 50.6547 94.0135 50.6547C93.628 50.6547 92.5858 50.7119 91.9148 50.7119C91.7006 50.7119 91.5864 50.6547 91.5864 50.5118C91.5864 50.4117 91.6578 50.3545 91.8577 50.3545C92.1004 50.3545 92.3145 50.3117 92.4573 50.2831C92.7857 50.1973 92.8856 49.7542 92.9427 49.1539C93.0284 48.2963 93.0284 46.6669 93.0284 44.7802V36.3759L93.0141 36.3616Z" fill="#231F20"/>
<path d="M102.579 41.1498C102.579 38.0339 102.579 37.4622 102.55 36.8047C102.522 36.1187 102.35 35.7613 101.979 35.6613C101.794 35.6041 101.58 35.5755 101.38 35.5898C101.208 35.5898 101.108 35.5469 101.108 35.3897C101.108 35.2611 101.251 35.2325 101.508 35.2325C102.136 35.2325 103.193 35.304 103.664 35.304C104.078 35.304 105.063 35.2325 105.691 35.2325C105.905 35.2325 106.034 35.2754 106.034 35.3897C106.034 35.5469 105.934 35.5898 105.777 35.5898C105.62 35.5898 105.477 35.6041 105.277 35.647C104.82 35.747 104.692 36.1044 104.663 36.819C104.635 37.4765 104.635 38.0482 104.635 41.1641V44.766C104.635 46.7527 104.635 48.3678 104.692 49.254C104.749 49.8114 104.863 50.1831 105.363 50.2545C105.591 50.2974 105.963 50.3403 106.205 50.326C106.391 50.326 106.476 50.3832 106.476 50.4975C106.476 50.6404 106.348 50.6976 106.162 50.6976C105.063 50.6976 104.021 50.6261 103.564 50.6261C103.179 50.6261 102.136 50.6976 101.465 50.6976C101.251 50.6976 101.137 50.6404 101.137 50.4975C101.137 50.3975 101.208 50.326 101.408 50.326C101.651 50.326 101.851 50.2831 102.008 50.2545C102.336 50.1688 102.436 49.8257 102.493 49.2254C102.579 48.3678 102.579 46.7384 102.579 44.7517V41.1355V41.1498Z" fill="#231F20"/>
<path d="M115.499 49.9686C112.316 49.9686 110.402 46.5955 110.402 42.3361C110.402 37.2335 112.573 35.9328 114.486 35.9328C117.213 35.9328 119.34 38.7771 119.34 43.3652C119.34 49.2826 116.656 49.9829 115.485 49.9829M114.814 50.9834C119.026 50.9834 121.681 47.2815 121.681 42.5934C121.681 37.9053 119.111 34.9466 114.971 34.9466C109.988 34.9466 108.118 39.4632 108.118 42.965C108.118 46.4668 110.046 50.9977 114.814 50.9977" fill="#231F20"/>
<path d="M126.165 47.9247C126.193 49.5255 126.422 50.0544 126.75 50.1973C127.035 50.326 127.35 50.3403 127.607 50.3403C127.792 50.3403 127.892 50.3831 127.906 50.4975C127.906 50.6547 127.764 50.6976 127.521 50.6976C126.436 50.6976 125.779 50.6404 125.465 50.6404C125.322 50.6404 124.537 50.6976 123.666 50.6976C123.452 50.6976 123.295 50.6833 123.295 50.4975C123.295 50.3688 123.395 50.3403 123.566 50.3403C123.78 50.3403 124.08 50.326 124.323 50.2402C124.751 50.083 124.823 49.4827 124.837 47.696L124.994 35.5755C124.994 35.161 125.051 34.8751 125.208 34.8751C125.394 34.8751 125.551 35.1324 125.822 35.504C126.022 35.7756 128.535 39.1059 130.962 42.0788C132.089 43.4653 134.317 46.4239 134.602 46.7527H134.688L134.517 37.5622C134.502 36.3187 134.345 35.9185 133.96 35.7184C133.717 35.6041 133.317 35.6041 133.089 35.6041C132.889 35.6041 132.818 35.5469 132.818 35.4183C132.818 35.261 133.003 35.2324 133.246 35.2324C134.102 35.2324 134.902 35.2896 135.245 35.2896C135.43 35.2896 136.058 35.2324 136.872 35.2324C137.086 35.2324 137.258 35.2467 137.258 35.4183C137.258 35.5469 137.158 35.6041 136.958 35.6041C136.787 35.6041 136.658 35.6041 136.458 35.6612C135.987 35.8185 135.859 36.2616 135.844 37.405L135.659 50.326C135.659 50.7833 135.587 50.9549 135.445 50.9549C135.259 50.9549 135.059 50.7262 134.873 50.4975C133.831 49.2683 131.718 46.5812 129.991 44.4801C128.192 42.2647 126.35 39.7062 126.05 39.3203H126.008L126.165 47.9247Z" fill="#231F20"/>
<path d="M146.552 35.3182C146.609 34.9752 146.709 34.7894 146.838 34.7894C146.966 34.7894 147.066 34.8894 147.295 35.4183L151.82 46.9671L156.332 35.2896C156.446 34.9609 156.546 34.8037 156.703 34.8037C156.86 34.8037 156.946 35.0038 157.003 35.4326L158.516 48.0819C158.673 49.3683 158.83 49.9686 159.33 50.1402C159.815 50.326 160.144 50.3403 160.358 50.3403C160.501 50.3403 160.629 50.3545 160.629 50.4832C160.629 50.6404 160.429 50.7119 160.201 50.7119C159.787 50.7119 157.488 50.6547 156.832 50.5975C156.446 50.5547 156.346 50.4975 156.346 50.3688C156.346 50.2688 156.417 50.2116 156.532 50.1402C156.632 50.0973 156.674 49.84 156.617 49.2683L155.618 40.2636H155.547L151.935 49.5541C151.549 50.5118 151.463 50.6976 151.321 50.6976C151.178 50.6976 151.007 50.2974 150.735 49.6685C150.336 48.7251 149.022 45.5949 148.822 45.0232C148.665 44.5944 147.68 42.0217 147.095 40.478H147.023L146.152 48.6251C146.124 48.9967 146.095 49.254 146.095 49.5827C146.095 49.9686 146.309 50.1544 146.595 50.2402C146.895 50.326 147.123 50.3403 147.295 50.3403C147.423 50.3403 147.537 50.3831 147.537 50.4832C147.537 50.669 147.395 50.7119 147.138 50.7119C146.438 50.7119 145.696 50.6547 145.396 50.6547C145.082 50.6547 144.296 50.7119 143.754 50.7119C143.583 50.7119 143.454 50.669 143.454 50.4832C143.454 50.3831 143.554 50.3403 143.725 50.3403C143.854 50.3403 143.968 50.3403 144.225 50.2831C144.696 50.1544 144.825 49.354 144.91 48.668L146.538 35.3325L146.552 35.3182Z" fill="#231F20"/>
<path d="M164.412 44.3372C164.412 44.3372 164.326 44.28 164.355 44.1942L165.883 39.1631C165.897 39.0773 165.94 38.9772 165.982 38.9772C166.025 38.9772 166.054 39.0773 166.068 39.1631L167.567 44.2085C167.567 44.2085 167.567 44.3372 167.482 44.3372H164.426H164.412ZM167.781 45.3663C167.867 45.3663 167.91 45.4091 167.953 45.5092L169.28 49.8543C169.366 50.0973 169.252 50.2831 169.138 50.326C168.981 50.3403 168.909 50.3831 168.909 50.5118C168.909 50.6547 169.109 50.6547 169.409 50.669C170.737 50.7119 171.95 50.7119 172.55 50.7119C173.149 50.7119 173.306 50.669 173.306 50.5118C173.306 50.3688 173.221 50.3403 173.092 50.3403C172.892 50.3403 172.635 50.326 172.393 50.2545C172.05 50.1544 171.565 49.8686 170.937 48.0248C169.88 44.9089 167.225 36.5617 166.825 35.4468C166.653 34.9752 166.554 34.7894 166.411 34.7894C166.254 34.7894 166.154 35.0181 165.94 35.6041L161.771 48.4536C161.442 49.4827 161.128 50.1687 160.357 50.2974C160.215 50.326 159.986 50.3403 159.843 50.3403C159.701 50.3403 159.644 50.3831 159.644 50.5118C159.644 50.669 159.743 50.7119 159.958 50.7119C160.814 50.7119 161.728 50.6404 161.914 50.6404C162.428 50.6404 163.141 50.7119 163.67 50.7119C163.855 50.7119 163.955 50.669 163.955 50.5118C163.955 50.3831 163.898 50.3403 163.698 50.3403H163.455C162.942 50.3403 162.799 50.0687 162.799 49.7114C162.799 49.4684 162.884 48.9681 163.041 48.4536L163.941 45.5235C163.969 45.3948 164.012 45.3663 164.084 45.3663H167.781Z" fill="#231F20"/>
<path d="M175.049 41.1498C175.049 38.0482 175.049 37.4622 175.02 36.819C174.992 36.1186 174.82 35.7756 174.449 35.6756C174.263 35.6184 174.049 35.5898 173.849 35.6041C173.678 35.6041 173.578 35.5612 173.578 35.404C173.578 35.2754 173.707 35.2468 173.978 35.2468C174.606 35.2468 175.663 35.3039 176.134 35.3039C176.548 35.3039 177.533 35.2468 178.161 35.2468C178.375 35.2468 178.504 35.2896 178.504 35.404C178.504 35.5755 178.404 35.6041 178.247 35.6041C178.09 35.6041 177.947 35.6184 177.747 35.6613C177.304 35.7613 177.162 36.1186 177.133 36.8333C177.105 37.4908 177.105 38.0625 177.105 41.1784V44.7803C177.105 46.767 177.105 48.3821 177.176 49.2683C177.233 49.8257 177.333 50.1973 177.847 50.2688C178.075 50.3117 178.447 50.3546 178.689 50.3403C178.875 50.3403 178.96 50.3974 178.96 50.4975C178.96 50.6404 178.832 50.6976 178.646 50.6976C177.547 50.6976 176.505 50.6404 176.048 50.6404C175.663 50.6404 174.62 50.6976 173.949 50.6976C173.735 50.6976 173.621 50.6404 173.621 50.4975C173.621 50.3974 173.692 50.3403 173.892 50.3403C174.135 50.3403 174.335 50.2974 174.492 50.2688C174.82 50.183 174.92 49.84 174.977 49.2397C175.063 48.3821 175.063 46.767 175.063 44.766V41.1498H175.049Z" fill="#231F20"/>
<path d="M184.629 44.766C184.629 47.3816 184.629 48.7966 184.971 49.1683C185.257 49.4827 185.685 49.6256 186.984 49.6256C187.869 49.6256 188.512 49.6113 188.926 49.0539C189.126 48.7966 189.326 48.2106 189.354 47.8247C189.369 47.6389 189.397 47.5103 189.54 47.5245C189.654 47.5245 189.683 47.6246 189.683 47.8676C189.683 48.0963 189.568 49.6256 189.426 50.2259C189.326 50.6833 189.24 50.7834 188.383 50.7834C185.985 50.7834 184.9 50.6547 183.558 50.6547C183.172 50.6547 182.13 50.7119 181.473 50.7119C181.259 50.7119 181.145 50.6547 181.145 50.5118C181.145 50.4118 181.216 50.3546 181.416 50.3546C181.659 50.3546 181.859 50.3117 182.016 50.2688C182.344 50.1831 182.43 49.74 182.501 49.1397C182.587 48.2821 182.587 46.667 182.587 44.7803V41.1784C182.587 38.0625 182.587 37.4908 182.559 36.8333C182.53 36.1329 182.387 35.8042 181.845 35.6613C181.716 35.6184 181.516 35.6041 181.302 35.6041C181.117 35.6041 181.017 35.5612 181.017 35.4183C181.017 35.2754 181.131 35.2325 181.388 35.2325C182.173 35.2325 183.215 35.2897 183.658 35.2897C184.058 35.2897 185.271 35.2325 185.914 35.2325C186.142 35.2325 186.256 35.2754 186.256 35.4183C186.256 35.5612 186.156 35.6041 185.956 35.6041C185.771 35.6041 185.5 35.6184 185.314 35.6613C184.871 35.7613 184.729 36.1044 184.7 36.8333C184.671 37.4908 184.671 38.0625 184.671 41.1784V44.7803L184.629 44.766Z" fill="#231F20"/>
<path d="M27.5396 25.699L28.2392 27.9287L30.5949 27.9144L28.6818 29.2865L29.4242 31.5163L27.5396 30.1155L25.6408 31.5163L26.3832 29.2865L24.4844 27.9144L26.8258 27.9287L27.5396 25.699Z" fill="white"/>
<path d="M27.5396 25.699L28.2392 27.9287L30.5949 27.9144L28.6818 29.2865L29.4242 31.5163L27.5396 30.1155L25.6408 31.5163L26.3832 29.2865L24.4844 27.9144L26.8258 27.9287L27.5396 25.699Z" stroke="#231F20" stroke-width="0.26"/>
<path d="M212.925 67.6206C215.895 67.6206 218.265 70.0361 218.265 73.0663C218.265 76.0964 215.895 78.5405 212.897 78.5405C209.899 78.5405 207.5 76.1393 207.5 73.0663C207.5 69.9933 209.913 67.6206 212.897 67.6206H212.925ZM212.897 68.4639C210.498 68.4639 208.542 70.5221 208.542 73.0663C208.542 75.6104 210.498 77.6972 212.925 77.6972C215.338 77.7258 217.28 75.6676 217.28 73.0949C217.28 70.5221 215.338 68.4782 212.925 68.4782H212.897V68.4639ZM211.883 76.2393H210.912V70.1648C211.426 70.0933 211.912 70.0218 212.625 70.0218C213.539 70.0218 214.153 70.2219 214.51 70.4792C214.881 70.7508 215.067 71.151 215.067 71.737C215.067 72.5374 214.538 73.0234 213.882 73.2092V73.2521C214.41 73.3521 214.781 73.8381 214.895 74.7243C215.038 75.6676 215.181 76.0249 215.281 76.225H214.267C214.124 76.0249 213.982 75.4818 213.853 74.6814C213.71 73.9096 213.325 73.6094 212.54 73.6094H211.869V76.225L211.883 76.2393ZM211.883 72.8662H212.583C213.382 72.8662 214.053 72.5803 214.053 71.8228C214.053 71.2939 213.668 70.7508 212.583 70.7508C212.268 70.7508 212.054 70.7794 211.883 70.808V72.8662Z" fill="#231F20"/>
<path d="M36.5348 62.2322L38.8762 57.4011H38.9047L39.1903 62.2322H36.5348ZM34.1934 65.3766H35.0071L36.2349 62.8896H39.2331L39.4044 65.3766H40.2182L39.5043 56.8008H38.5478L34.1934 65.3766Z" fill="#231F20"/>
<path d="M42.2741 58.9876H42.9879L42.0314 63.4757C41.8172 64.5048 42.0742 64.905 42.8309 64.905C43.6446 64.905 44.3585 64.2618 44.5584 63.2756L45.4721 58.9876H46.2002L44.8439 65.3623H44.2014L44.387 64.4619H44.3585C43.8445 65.1765 43.1592 65.491 42.5168 65.491C41.5459 65.491 40.9891 64.9907 41.2461 63.7758L42.2741 58.9733V58.9876Z" fill="#231F20"/>
<path d="M47.7274 59.6022H46.8565L46.985 59.0019H47.8559L48.2271 57.2438H48.9552L48.584 59.0019H49.7119L49.5834 59.6022H48.4555L47.4847 64.1617C47.3848 64.662 47.5561 64.8335 48.0272 64.8335C48.17 64.8335 48.327 64.8049 48.4841 64.762L48.3556 65.3623C48.2557 65.4052 48.0701 65.4338 47.8416 65.4338C46.8708 65.4338 46.5567 65.1622 46.728 64.3189L47.7274 59.6022Z" fill="#231F20"/>
<path d="M50.9536 56.7865H51.6675L51.0108 59.8881H51.0393C51.3534 59.2306 52.053 58.8447 52.8096 58.8447C53.7805 58.8447 54.3373 59.3592 54.0803 60.5455L53.0523 65.3623H52.3242L53.2951 60.7599C53.4807 59.8881 53.2094 59.445 52.4813 59.445C51.6389 59.445 50.9536 60.0882 50.7395 61.0744L49.8258 65.348H49.0977L50.9251 56.7579L50.9536 56.7865Z" fill="#231F20"/>
<path d="M55.5514 62.1749C55.9797 60.1453 56.7507 59.4593 57.5645 59.4593C58.3782 59.4593 58.8494 60.1596 58.4211 62.1749C57.9928 64.2046 57.2075 64.9049 56.408 64.9049C55.6085 64.9049 55.1231 64.2046 55.5514 62.1749ZM54.7805 62.1749C54.3093 64.3904 54.8661 65.5052 56.2653 65.5052C57.6644 65.5052 58.7066 64.3904 59.1777 62.1749C59.6489 59.9738 59.0921 58.8589 57.6787 58.8589C56.2653 58.8589 55.2373 59.9738 54.7805 62.1749Z" fill="#231F20"/>
<path d="M60.9192 58.9876H61.6473L61.4331 59.9881H61.4617C61.89 59.2735 62.5753 58.8447 63.3177 58.8447C63.4033 58.8447 63.4747 58.8447 63.5604 58.8875L63.4033 59.6165C63.2891 59.5879 63.1749 59.5736 63.0607 59.5736C62.2612 59.5736 61.4046 60.1453 61.1333 61.3888L60.291 65.3766H59.5771L60.9334 59.0019L60.9192 58.9876Z" fill="#231F20"/>
<path d="M64.5167 58.0014H65.2449L65.5018 56.7864H64.788L64.531 58.0014H64.5167ZM62.9463 65.3766H63.6744L65.0307 59.0019H64.3026L62.9463 65.3766Z" fill="#231F20"/>
<path d="M64.7457 64.762L68.8717 59.6022H66.002L66.1305 58.9876H69.7569L69.6284 59.6022L65.5166 64.762H68.5433L68.4006 65.3623H64.6172L64.7457 64.762Z" fill="#231F20"/>
<path d="M70.6136 61.6175C70.9705 60.031 71.5415 59.4593 72.4267 59.4593C73.3119 59.4593 73.6545 60.031 73.3404 61.6175H70.6136ZM72.9692 63.2612C72.6123 64.3618 72.027 64.9049 71.2703 64.9049C70.5564 64.9049 70.0425 64.3475 70.428 62.518L70.4851 62.2178H73.9829L74.04 61.9463C74.4969 59.8166 74.0686 58.8447 72.6409 58.8447C71.2132 58.8447 70.1995 59.9738 69.7284 62.175C69.2287 64.5619 69.814 65.491 71.1703 65.491C72.3696 65.491 73.2976 64.5905 73.6973 63.2469H72.9835L72.9692 63.2612Z" fill="#231F20"/>
<path d="M75.6098 62.1749C76.1095 59.8309 76.8661 59.4592 77.58 59.4592C78.2938 59.4592 78.8934 59.8309 78.3937 62.1749C77.8941 64.5333 77.1517 64.9049 76.4235 64.9049C75.6954 64.9049 75.1101 64.5333 75.6098 62.1749ZM77.7941 65.3766H78.4509L80.264 56.7864H79.5502L78.8792 59.9595H78.8506C78.8363 59.2877 78.3937 58.8446 77.5942 58.8446C76.1951 58.8446 75.3099 59.9738 74.8388 62.1749C74.3677 64.3761 74.7674 65.5052 76.1808 65.5052C76.9375 65.5052 77.6514 65.0336 77.994 64.3046H78.0226L77.7941 65.3766Z" fill="#231F20"/>
<path d="M83.948 62.175C84.4476 59.8309 85.19 59.4593 85.9182 59.4593C86.6463 59.4593 87.2316 59.8309 86.7319 62.175C86.2323 64.5333 85.4756 64.905 84.7617 64.905C84.0479 64.905 83.4483 64.5333 83.948 62.175ZM82.5488 65.3766H83.2056L83.434 64.3047H83.4625C83.5054 65.0336 84.0193 65.5053 84.776 65.5053C86.1751 65.5053 87.0603 64.3761 87.5314 62.175C88.0026 59.9881 87.6028 58.859 86.1894 58.859C85.4042 58.859 84.7617 59.2878 84.4619 59.9738H84.4334L85.1044 56.8008H84.3905L82.5631 65.3909L82.5488 65.3766Z" fill="#231F20"/>
<path d="M88.7587 58.9876H89.5296L89.7866 64.5047H89.8152L92.2708 58.9876H93.0417L89.7152 65.8769C89.1156 67.1204 88.6588 67.4777 87.6879 67.4777C87.4881 67.4777 87.3596 67.4777 87.2168 67.4491L87.3453 66.8488C87.5023 66.8488 87.6451 66.8774 87.8021 66.8774C88.2447 66.8774 88.5874 66.6916 88.93 66.0198L89.2441 65.4195L88.773 58.9876H88.7587Z" fill="#231F20"/>
<path d="M96.8261 59.6022H95.9552L96.0837 59.0019H96.9545L97.3257 57.2438H98.0539L97.6827 59.0019H98.8105L98.682 59.6022H97.5542L96.5833 64.1617C96.4834 64.662 96.6547 64.8335 97.1259 64.8335C97.2686 64.8335 97.4257 64.8049 97.5827 64.762L97.4542 65.3623C97.3543 65.4052 97.1687 65.4338 96.9403 65.4338C95.9694 65.4338 95.6554 65.1622 95.8267 64.3189L96.8261 59.6022Z" fill="#231F20"/>
<path d="M100.052 56.7865H100.766L100.109 59.8881H100.138C100.452 59.2306 101.152 58.8447 101.908 58.8447C102.879 58.8447 103.436 59.3592 103.179 60.5455L102.151 65.3623H101.423L102.394 60.7599C102.579 59.8881 102.308 59.445 101.58 59.445C100.752 59.445 100.052 60.0882 99.8381 61.0744L98.9244 65.348H98.1963L100.024 56.7579L100.052 56.7865Z" fill="#231F20"/>
<path d="M104.835 61.6175C105.192 60.031 105.763 59.4593 106.648 59.4593C107.534 59.4593 107.876 60.031 107.562 61.6175H104.835ZM107.191 63.2612C106.834 64.3618 106.249 64.9049 105.492 64.9049C104.778 64.9049 104.264 64.3475 104.65 62.518L104.721 62.2178H108.205L108.262 61.9463C108.719 59.8166 108.29 58.8447 106.863 58.8447C105.435 58.8447 104.421 59.9738 103.95 62.175C103.45 64.5619 104.036 65.491 105.392 65.491C106.591 65.491 107.519 64.5905 107.919 63.2469H107.205L107.191 63.2612Z" fill="#231F20"/>
<path d="M113.201 56.7864H113.972L112.658 62.9468C112.387 64.2331 112.801 64.862 113.943 64.862C115.085 64.862 115.77 64.2331 116.042 62.9468L117.355 56.7864H118.126L116.813 62.9611C116.427 64.762 115.399 65.5052 113.815 65.5052C112.23 65.5052 111.516 64.762 111.901 62.9611L113.215 56.7864H113.201Z" fill="#231F20"/>
<path d="M117.87 65.3766H118.684L118.941 64.1474H118.127L117.87 65.3766Z" fill="#231F20"/>
<path d="M125.493 58.9876C125.722 57.9299 125.351 57.301 124.308 57.301C123.266 57.301 122.538 57.9871 122.352 58.8447C121.81 61.4031 126.279 59.9881 125.636 63.004C125.279 64.662 124.066 65.5195 122.509 65.5195C120.953 65.5195 120.197 64.6477 120.539 62.9754L120.596 62.7181H121.367L121.296 63.0468C121.068 64.1331 121.482 64.8764 122.624 64.8764C123.766 64.8764 124.594 64.3332 124.851 63.1326C125.393 60.5884 120.91 62.0463 121.581 58.9447C121.867 57.6012 122.938 56.6721 124.437 56.6721C126.036 56.6721 126.593 57.4868 126.279 59.0162H125.508L125.493 58.9876Z" fill="#231F20"/>
<path d="M126.764 64.1474H127.578L127.321 65.3766H126.507L126.764 64.1474Z" fill="#231F20"/>
<path d="M133.917 57.4439H135.216C136.386 57.4439 136.929 57.9299 136.658 59.2163C136.372 60.5312 135.487 60.9886 134.459 60.9886H133.16L133.917 57.4439ZM131.461 65.3766H132.232L133.017 61.6461H134.302C136.244 61.6461 137.143 60.5455 137.429 59.2163C137.743 57.7584 137.243 56.7864 135.601 56.7864H133.288L131.461 65.3623V65.3766Z" fill="#231F20"/>
<path d="M138.342 62.1749C138.771 60.1453 139.542 59.4593 140.355 59.4593C141.169 59.4593 141.64 60.1596 141.212 62.1749C140.784 64.2046 139.999 64.9049 139.199 64.9049C138.4 64.9049 137.914 64.2046 138.342 62.1749ZM137.571 62.1749C137.1 64.3904 137.657 65.5052 139.056 65.5052C140.455 65.5052 141.498 64.3904 141.969 62.1749C142.44 59.9738 141.883 58.8589 140.47 58.8589C139.056 58.8589 138.028 59.9738 137.571 62.1749Z" fill="#231F20"/>
<path d="M144.025 62.2035C143.197 61.8605 142.983 61.3317 143.125 60.7028C143.411 59.4021 144.339 58.8589 145.41 58.8589C146.609 58.8589 147.037 59.4735 146.78 60.6313L146.738 60.8028H146.009L146.052 60.6313C146.224 59.8023 145.924 59.4593 145.267 59.4593C144.425 59.4593 144.011 59.9023 143.868 60.5455C143.768 60.9886 143.839 61.3317 144.51 61.6032L145.467 62.0034C146.266 62.3322 146.452 62.9325 146.309 63.6185C146.081 64.7048 145.281 65.5195 143.954 65.5195C142.626 65.5195 142.126 64.9764 142.426 63.5328L142.469 63.3327H143.197L143.168 63.4899C142.968 64.419 143.268 64.9049 144.082 64.9049C144.839 64.9049 145.424 64.4761 145.567 63.7615C145.681 63.204 145.538 62.8467 144.967 62.5894L144.039 62.1892L144.025 62.2035Z" fill="#231F20"/>
<path d="M148.508 59.6022H147.637L147.766 59.0019H148.637L149.008 57.2438H149.722L149.35 59.0019H150.478L150.35 59.6022H149.222L148.251 64.1617C148.151 64.662 148.323 64.8335 148.794 64.8335C148.936 64.8335 149.093 64.8049 149.251 64.762L149.122 65.3623C149.022 65.4052 148.836 65.4338 148.608 65.4338C147.637 65.4338 147.323 65.1622 147.509 64.3189L148.508 59.6022Z" fill="#231F20"/>
<path d="M153.305 63.104C153.062 64.2332 152.32 64.9049 151.449 64.9049C150.821 64.9049 150.55 64.4047 150.707 63.6614C150.864 62.9039 151.321 62.5323 152.077 62.3465L152.706 62.1892C153.005 62.1178 153.448 61.9891 153.562 61.7747H153.591L153.305 63.1183V63.104ZM151.449 60.8886C151.649 59.9738 152.12 59.4593 152.977 59.4593C153.619 59.4593 154.019 59.7451 153.848 60.5598C153.691 61.3031 153.562 61.4174 153.02 61.5603L151.578 61.9463C150.621 62.2035 150.093 62.861 149.907 63.7043C149.665 64.8049 150.021 65.5052 151.149 65.5052C151.863 65.5052 152.563 65.2623 153.02 64.419H153.048L153.005 64.6334C152.863 65.2908 153.205 65.4338 153.762 65.4338C153.862 65.4338 153.976 65.4052 154.105 65.3623L154.219 64.8335H154.019C153.762 64.8335 153.676 64.6619 153.762 64.3046L154.562 60.5455C154.776 59.545 154.433 58.8589 153.12 58.8589C151.806 58.8589 150.992 59.5879 150.721 60.8886H151.449Z" fill="#231F20"/>
<path d="M156.903 56.7864H157.616L155.789 65.3766H155.075L156.903 56.7864Z" fill="#231F20"/>
<path d="M165.198 58.9876C165.426 57.9299 165.055 57.301 164.027 57.301C162.999 57.301 162.257 57.9871 162.071 58.8447C161.529 61.4031 165.997 59.9881 165.355 63.004C164.998 64.662 163.784 65.5195 162.228 65.5195C160.672 65.5195 159.901 64.6477 160.258 62.9754L160.315 62.7181H161.086L161.015 63.0468C160.786 64.1331 161.2 64.8764 162.342 64.8764C163.485 64.8764 164.313 64.3332 164.57 63.1326C165.112 60.5884 160.629 62.0463 161.3 58.9447C161.586 57.6012 162.657 56.6721 164.156 56.6721C165.755 56.6721 166.311 57.4868 165.997 59.0162H165.226L165.198 58.9876Z" fill="#231F20"/>
<path d="M167.154 61.6175C167.511 60.031 168.082 59.4593 168.967 59.4593C169.852 59.4593 170.18 60.031 169.88 61.6175H167.154ZM169.509 63.2612C169.152 64.3618 168.567 64.9049 167.81 64.9049C167.096 64.9049 166.583 64.3475 166.968 62.518L167.025 62.2178H170.523L170.58 61.9463C171.037 59.8166 170.609 58.8447 169.181 58.8447C167.753 58.8447 166.74 59.9738 166.268 62.175C165.769 64.5619 166.354 65.491 167.71 65.491C168.91 65.491 169.838 64.5905 170.237 63.2469H169.524L169.509 63.2612Z" fill="#231F20"/>
<path d="M172.336 58.9876H173.064L172.85 59.9881H172.879C173.307 59.2735 173.992 58.8447 174.735 58.8447C174.82 58.8447 174.892 58.8447 174.977 58.8875L174.82 59.6165C174.706 59.5879 174.592 59.5736 174.478 59.5736C173.678 59.5736 172.822 60.1453 172.55 61.3888L171.708 65.3766H170.994L172.35 59.0019L172.336 58.9876Z" fill="#231F20"/>
<path d="M175.276 58.9876H176.033L176.261 64.5476H176.29L178.76 58.9876H179.531L176.504 65.3623H175.69L175.276 58.9876Z" fill="#231F20"/>
<path d="M180.374 58.9876H181.102L179.746 65.3623H179.018L180.374 58.9876ZM180.831 56.7864H181.559L181.302 58.0014H180.574L180.831 56.7864Z" fill="#231F20"/>
<path d="M185.442 63.2469C185.042 64.6048 184.114 65.5053 182.929 65.5053C181.587 65.5053 180.987 64.5619 181.501 62.1607C181.972 59.9595 183 58.8447 184.399 58.8447C185.599 58.8447 186.141 59.5879 185.941 60.8886H185.213C185.342 59.9024 185.042 59.4593 184.271 59.4593C183.5 59.4593 182.743 59.9309 182.272 62.1892C181.758 64.5905 182.372 64.9049 183.057 64.9049C183.785 64.9049 184.371 64.3618 184.728 63.2469H185.456H185.442Z" fill="#231F20"/>
<path d="M187.341 61.6175C187.698 60.031 188.269 59.4593 189.154 59.4593C190.039 59.4593 190.368 60.031 190.054 61.6175H187.341ZM189.697 63.2612C189.34 64.3618 188.755 64.9049 187.998 64.9049C187.284 64.9049 186.77 64.3475 187.156 62.518L187.213 62.2178H190.71L190.768 61.9463C191.224 59.8166 190.796 58.8447 189.368 58.8447C187.941 58.8447 186.927 59.9738 186.456 62.175C185.942 64.5619 186.542 65.491 187.898 65.491C189.083 65.491 190.025 64.5905 190.425 63.2469H189.711L189.697 63.2612Z" fill="#231F20"/>
</g>
<defs>
<clipPath id="clip0_47_12955">
<rect width="230" height="83" fill="white"/>
</clipPath>
</defs>
</svg>
