<?xml version="1.0" encoding="utf-8"?>
<svg version="1.1" id="Layer_1" xmlns="http://www.w3.org/2000/svg" xmlns:xlink="http://www.w3.org/1999/xlink" x="0px" y="0px"
     viewBox="0 0 200 100" style="background-color:#333366;" xml:space="preserve">
<style type="text/css">
    .st0{fill:#FFFFFF;}
</style>

<!-- Background Rectangle -->
<rect width="100%" height="100%" fill="#333366"/>

<!-- Letter F -->
<g>
    <rect x="20" y="25" width="20" height="50" class="st0"/>
    <rect x="20" y="25" width="50" height="12" class="st0"/>
    <rect x="20" y="45" width="35" height="10" class="st0"/>
</g>

<!-- Letter D -->
<g>
    <rect x="80" y="25" width="20" height="50" class="st0"/>
    <path class="st0" d="M100,25 h35 c15,0 25,12 25,25 s-10,25 -25,25 h-35 V25 z"/>
</g>

<!-- Letter I -->
<g>
    <rect x="140" y="25" width="20" height="50" class="st0"/>
</g>

<!-- Letter C -->
<g>
    <path class="st0" d="M175,25 h-35 c-15,0 -25,12 -25,25 s10,25 25,25 h35 v-12 h-33 c-6,0 -10-6 -10-13 s4-13 10-13 h33 V25 z"/>
</g>
</svg>
